<?xml version="1.0" encoding="UTF-8" standalone="no"?>
<!-- Created with Inkscape (http://www.inkscape.org/) -->

<svg
   xmlns:dc="http://purl.org/dc/elements/1.1/"
   xmlns:cc="http://creativecommons.org/ns#"
   xmlns:rdf="http://www.w3.org/1999/02/22-rdf-syntax-ns#"
   xmlns:svg="http://www.w3.org/2000/svg"
   xmlns="http://www.w3.org/2000/svg"
   xmlns:xlink="http://www.w3.org/1999/xlink"
   xmlns:sodipodi="http://sodipodi.sourceforge.net/DTD/sodipodi-0.dtd"
   xmlns:inkscape="http://www.inkscape.org/namespaces/inkscape"
   width="718.93726"
   height="554.16101"
   id="svg4870"
   version="1.1"
   inkscape:version="0.48.5 r10040"
   sodipodi:docname="goeland.svg">
  <defs
     id="defs4872">
    <radialGradient
       cx="295.85941"
       cy="154.31184"
       r="297.05353"
       fx="295.85941"
       fy="154.31184"
       id="radialGradient6909"
       xlink:href="#linearGradient3831-7"
       gradientUnits="userSpaceOnUse"
       gradientTransform="matrix(1.6641726,0.40315232,-0.26925704,1.1114662,1523.3018,15.777856)" />
    <linearGradient
       id="linearGradient3831-7">
      <stop
         id="stop3833-0"
         style="stop-color:#ffffff;stop-opacity:1"
         offset="0" />
      <stop
         id="stop3835-6"
         style="stop-color:#d2d2d2;stop-opacity:1"
         offset="1" />
    </linearGradient>
    <radialGradient
       cx="295.85941"
       cy="154.31184"
       r="297.05353"
       fx="295.85941"
       fy="154.31184"
       id="radialGradient7181"
       xlink:href="#linearGradient3831-9"
       gradientUnits="userSpaceOnUse"
       gradientTransform="matrix(1.8609595,0.45155874,-0.30109644,1.2449197,546.69782,-552.89099)" />
    <linearGradient
       id="linearGradient3831-9">
      <stop
         id="stop3833-7"
         style="stop-color:#ffffff;stop-opacity:1"
         offset="0" />
      <stop
         id="stop3835-8"
         style="stop-color:#d2d2d2;stop-opacity:1"
         offset="1" />
    </linearGradient>
    <radialGradient
       cx="84.645866"
       cy="-17.733772"
       r="97.564056"
       fx="84.645866"
       fy="-17.733772"
       id="radialGradient7421"
       xlink:href="#linearGradient3819-4-44-9"
       gradientUnits="userSpaceOnUse"
       gradientTransform="matrix(6.6444123,0.52598812,-0.14752678,1.3633871,197.31953,269.9062)" />
    <linearGradient
       id="linearGradient3819-4-44-9">
      <stop
         id="stop3821-2-99-25"
         style="stop-color:#ffdd55;stop-opacity:1"
         offset="0" />
      <stop
         id="stop3823-5-9-2"
         style="stop-color:#ff5500;stop-opacity:1"
         offset="1" />
    </linearGradient>
    <linearGradient
       x1="-21.503109"
       y1="27.09375"
       x2="174.625"
       y2="27.09375"
       id="linearGradient7423"
       xlink:href="#linearGradient3847-6-26-6"
       gradientUnits="userSpaceOnUse"
       gradientTransform="matrix(1.113072,-0.26340234,0.25118211,1.0614323,661.70922,317.65333)" />
    <linearGradient
       id="linearGradient3847-6-26-6">
      <stop
         id="stop3849-0-3-2"
         style="stop-color:#d5bb54;stop-opacity:1"
         offset="0" />
      <stop
         id="stop3851-8-9-9"
         style="stop-color:#cc6532;stop-opacity:1"
         offset="1" />
    </linearGradient>
    <radialGradient
       r="97.564056"
       fy="-17.733772"
       fx="84.645866"
       cy="-17.733772"
       cx="84.645866"
       gradientTransform="matrix(6.6444123,0.52598812,-0.14752678,1.3633871,197.31953,269.9062)"
       gradientUnits="userSpaceOnUse"
       id="radialGradient4866"
       xlink:href="#linearGradient3819-4-44-9"
       inkscape:collect="always" />
    <linearGradient
       y2="27.09375"
       x2="174.625"
       y1="27.09375"
       x1="-21.503109"
       gradientTransform="matrix(1.113072,-0.26340234,0.25118211,1.0614323,661.70922,317.65333)"
       gradientUnits="userSpaceOnUse"
       id="linearGradient4868"
       xlink:href="#linearGradient3847-6-26-6"
       inkscape:collect="always" />
  </defs>
  <sodipodi:namedview
     id="base"
     pagecolor="#ffffff"
     bordercolor="#666666"
     borderopacity="1.0"
     inkscape:pageopacity="0.0"
     inkscape:pageshadow="2"
     inkscape:zoom="0.35"
     inkscape:cx="101.35149"
     inkscape:cy="-61.538635"
     inkscape:document-units="px"
     inkscape:current-layer="layer1"
     showgrid="false"
     inkscape:window-width="1366"
     inkscape:window-height="742"
     inkscape:window-x="0"
     inkscape:window-y="0"
     inkscape:window-maximized="0"
     fit-margin-top="0"
     fit-margin-left="0"
     fit-margin-right="0"
     fit-margin-bottom="0" />
  <metadata
     id="metadata4875">
    <rdf:RDF>
      <cc:Work
         rdf:about="">
        <dc:format>image/svg+xml</dc:format>
        <dc:type
           rdf:resource="http://purl.org/dc/dcmitype/StillImage" />
        <dc:title></dc:title>
      </cc:Work>
    </rdf:RDF>
  </metadata>
  <g
     inkscape:label="Layer 1"
     inkscape:groupmode="layer"
     id="layer1"
     transform="translate(-15.478235,-21.281667)">
    <g
       transform="matrix(0.80829848,0,0,0.80829848,-509.05061,-22.366455)"
       id="layer6"
       style="display:inline">
      <path
         d="m 804.82265,263.05017 c -4.08713,3.29167 -8.37329,6.34863 -12.81018,9.19626 -38.46119,24.68455 -93.94537,56.17018 -117.18258,70.42888 -8.50983,7.28751 -26.18829,43.03106 -17.61128,57.51417 4.46253,-11.31258 48.47001,-25.37241 55.04764,-20.69769 12.9703,-25.25065 86.66541,-52.63716 130.75876,-65.05978 6.97314,-1.82962 14.25043,-3.22314 21.58022,-4.2662 l -41.73644,-17.26944 9.83433,-29.46088 z m -30.38564,35.35254 c 5.01752,-1.12124 9.38663,-1.49559 10.97111,-0.66975 4.03259,2.10153 -28.76918,15.81696 -33.29363,17.47622 -6.26946,2.29908 -1.41942,-1.97438 1.67283,-7.36629 2.1117,-3.6821 12.28705,-7.57195 20.64969,-9.44018 z"
         id="path7189"
         style="fill:url(#radialGradient4866);fill-opacity:1;stroke:url(#linearGradient4868);stroke-width:12;stroke-miterlimit:4;stroke-opacity:1;stroke-dasharray:none;display:inline"
         inkscape:connector-curvature="0" />
    </g>
    <g
       transform="matrix(0.80829848,0,0,0.80829848,-507.39451,507.42616)"
       id="layer3"
       style="display:inline">
      <path
         d="m 972.8514,-476.73581 c -3.28662,0 -5.94069,2.29131 -5.94069,5.11032 2.4775,9.99672 11.50496,3.90656 11.90138,-0.92857 0.17672,-2.15549 -1.36184,-4.06154 -5.96069,-4.18175 z"
         id="path3817"
         style="fill:#e9c240;fill-opacity:1;stroke:#c7b322;stroke-width:1.1191591;stroke-opacity:1"
         inkscape:connector-curvature="0" />
      <g
         id="g7462">
        <path
           d="m 826.92444,-408.25286 c 4.39332,-0.19083 16.56172,2.59236 23.57279,2.98869 0.43276,3.43212 -1.47588,9.2208 -3.76534,15.34031 -2.28946,6.11951 -4.95974,12.56984 -6.05025,17.32527 l 39.37159,18.74675 c 31.63591,7.73797 71.43391,5.052 88.94753,46.5714 4.92734,17.16451 -1.3829,35.88732 -5.31168,53.30833 -5.39959,23.94294 -17.72553,45.81712 -24.8461,69.30432 -4.60539,15.19083 -8.53459,30.61352 -11.53194,46.20287 -3.72491,19.3734 -8.40403,38.939113 -7.96753,58.663658 0.51287,23.174693 0.12268,48.783128 12.40558,68.429266 159.22691,184.250436 444.32631,16.4871028 593.15971,79.205029 11.8306,6.749764 0.7391,-28.705826 -3.5645,-41.6442 -32.9227,-67.462364 -69.9568,-123.420475 -142.5873,-168.178113 -144.5751,-99.28814 -281.1394,-45.61017 -271.1566,-225.82918 -1.6329,-13.43826 -5.9443,-31.32032 -9.6865,-44.32851 -12.4015,-33.30985 -24.0782,-74.90996 -55.0039,-90.62065 -17.0202,-7.50115 -32.4451,-10.60163 -46.58203,-10.46565 -61.25984,0.58922 -94.22428,69.78138 -138.20859,87.78547 -1.67782,1.02181 -27.27508,15.28436 -31.19494,17.19494 z m 149.90407,-61.5077 c 5.16026,-0.15524 10.70142,0.73811 19.15006,2.66016 -8.93396,4.54556 -14.06276,10.70397 -23.3435,12.8108 -8.92573,2.02625 -21.53301,1.63015 -25.12566,-1.50509 3.08855,-2.71955 9.40177,-9.50049 16.80869,-11.69073 4.70947,-1.3926 8.49688,-2.1544 12.51041,-2.27514 z"
           id="path3004"
           style="fill:url(#radialGradient7181);fill-opacity:1;stroke:#808080;stroke-width:12;stroke-linecap:butt;stroke-linejoin:miter;stroke-miterlimit:4;stroke-dasharray:none"
           inkscape:connector-curvature="0" />
      </g>
      <path
         d="m 1081.7053,-238.26998 c 0,0 14.918,56.79212 32.619,79.16719 16.9377,21.41014 42.0159,35.70412 66.4928,47.75165 35.2666,17.358246 76.5302,19.05793 112.9121,33.928794 52.4774,21.449796 103.012,48.251823 150.5495,79.1671944 25.4721,16.5653956 74.0202,58.7470786 74.0202,58.7470786"
         id="path3867"
         style="fill:none;stroke:#808080;stroke-width:5.59579563;stroke-linecap:butt;stroke-linejoin:miter;stroke-miterlimit:4;stroke-opacity:1;stroke-dasharray:none"
         inkscape:connector-curvature="0" />
      <path
         d="m 970.8514,-464.73581 c -3.28662,0 -5.94069,2.29131 -5.94069,5.11032 2.4775,9.99672 11.50496,3.90656 11.90138,-0.92857 0.17672,-2.15549 -1.36184,-4.06154 -5.96069,-4.18175 z"
         id="path3869"
         style="fill:#e9c240;fill-opacity:1;stroke:#c7b322;stroke-width:1.1191591;stroke-opacity:1"
         inkscape:connector-curvature="0" />
      <path
         d="m 1081.7053,-238.26998 c 0,0 14.918,56.79212 32.619,79.16719 16.9377,21.41014 42.0159,35.70412 66.4928,47.75165 35.2666,17.358246 76.5302,19.05793 112.9121,33.928794 52.4774,21.449796 103.012,48.251823 150.5495,79.1671944 25.4721,16.5653956 74.0202,58.7470786 74.0202,58.7470786"
         id="path3875"
         style="fill:none;stroke:#808080;stroke-width:11.99999905;stroke-linecap:butt;stroke-linejoin:miter;stroke-miterlimit:4;stroke-opacity:1;stroke-dasharray:none"
         inkscape:connector-curvature="0" />
    </g>
    <g
       transform="matrix(0.80829848,0,0,0.80829848,-507.39451,507.42616)"
       id="layer2"
       style="display:inline">
      <g
         transform="matrix(1.1438138,0,0,1.0907479,-321.0928,-513.21752)"
         id="g3115">
        <g
           transform="translate(881.23237,-140.36336)"
           id="g3117">
          <path
             d="m 246.95422,167.69353 c -2.93908,0 -5.3125,2.04568 -5.3125,4.5625 2.21552,8.92509 10.28837,3.48778 10.64287,-0.82903 0.15804,-1.92442 -1.21783,-3.62615 -5.33037,-3.73347 z"
             id="path3119"
             style="fill:#e9c240;fill-opacity:1;stroke:#c7b322;stroke-opacity:1"
             inkscape:connector-curvature="0" />
          <path
             d="m 1900.0312,-30 c -2.0101,5.935753 1.664,12.953605 2.0938,19.3125 1.5051,8.815688 3.201,17.93884 2.1875,26.84375 -2.7076,1.51914 -7.5202,-2.13601 -5.7813,4.1875 1.5648,7.60321 0.3928,15.43631 2.3126,23.03125 2.1553,6.88661 -4.3936,3.76623 -4.4376,-0.84375 -4.741,-12.03343 -5.8366,-25.112729 -8.7187,-37.65625 -0.8528,-5.97507 -3.829,-13.66293 -6.7187,-17.46875 1.6016,19.644516 3.9068,39.2478 4.1874,58.96875 2.1639,4.89006 -2.7432,8.73961 -3.9374,2.03125 -4.3724,-8.24667 -5.235,-17.60128 -7.5313,-26.46875 -2.4733,-3.80066 -2.4087,-14.48966 -6.7813,-13.90625 -0.6859,7.22962 -1.083,14.46431 0.8126,21.59375 -1.7216,4.23522 -7.2663,-10.23647 -7.25,-2.96875 4.4823,7.40062 7.5729,15.41781 10.3437,23.5625 1.688,3.71092 1.0888,15.1728 -3.6875,7.3125 -5.4621,-8.46805 -7.1749,-18.66654 -11.0625,-27.875 -0.7511,-2.64014 -3.1701,-11.13974 -2.6563,-3.21875 0.7701,15.84139 -10.087,39.599447 -11.5708,55.341162 -1.5231,16.158548 -50.2988,46.450358 -70.5168,59.937498 2.9055,1.23067 23.8257,3.45336 23.8257,3.45336 0,0 -5.6815,10.47806 -11.1019,30.46041 l 36.2516,16.98605 c 11.4808,1.09878 37.2233,6.45515 46.7685,12.36372 13.9423,8.6304 25.5938,18.074 30.125,33.8328 4.4063,15.3245 -1.2367,32.04025 -4.75,47.59375 -4.8286,21.3763 -15.8512,40.9056 -22.2187,61.875 -4.1184,13.5624 -7.6321,27.3318 -10.3126,41.25 -3.331,17.2966 -7.5153,34.7649 -7.125,52.375 0.4587,20.6904 0.1098,43.55365 11.0938,61.09375 142.4552,164.54399 385.675,19.31807 518.8438,75.34375 10.5796,6.0262 0.661,-22.54235 -3.1876,-34.09375 -29.4412,-60.2305 -54.831,-117.13405 -119.7812,-157.09375 -129.287,-88.6446 -249.8647,-45.3502 -240.9375,-206.25 -1.4602,-11.9977 -2.9973,-24.10502 -6.3437,-35.71875 -7.1097,-19.06507 -13.9672,-41.17237 -25.25,-58.28125 6.3055,-4.277102 12.677,-8.792382 17.4687,-14.6875 3.3831,-4.58912 5.9829,-9.81209 7.4063,-15.3125 -3.1538,-4.04567 -5.9865,6.9125 -10.2813,7.46875 -3.6176,1.18395 -10.7353,11.43678 -12.9375,5.3125 2.7151,-9.12047 6.7431,-17.73682 11.9688,-25.6875 1.9078,-3.51403 8.8485,-12.48779 3.5624,-13.96875 -6.8024,10.17118 -13.6381,21.03168 -24.3437,27.5625 -2.6621,3.32056 -11.1057,6.72485 -7.4375,-0.71875 5.1501,-16.17775 16.1655,-31.15204 15.1562,-48.78125 -3.9838,-5.470771 -4.7964,7.16882 -6.2187,10.09375 0.4213,5.2305 -5.8209,6.68761 -4.9063,0.28125 0.5985,-3.87487 -1.5457,-12.8145 -3.3437,-4.3125 -2.5612,7.61437 -3.221,15.84081 -5.9375,23.34375 -2.5336,1.24752 -3.8692,-7.02015 -6.125,-1.1875 -1.8045,2.4675 0.2891,13.28728 -3.9062,9.96875 1.7671,-14.96822 4.1252,-29.899009 6.2187,-44.8125 -4.6,-1.50711 -4.8173,9.88286 -7.0937,13.75 -2.4031,3.89933 -1.7487,13.23845 -6.1563,13.84375 -0.9548,-2.59609 -2.8629,-15.41835 -5.9375,-8.40625 -0.1031,8.42155 0.3111,17.22505 -2.7188,25.21875 -5.6455,0.67496 -1.4564,-10.08045 -2.0937,-14.03125 0.9562,-14.79645 3.7623,-29.465754 4.0625,-44.28125 1.0824,-6.188351 -4.2224,-7.407324 -3.7812,-0.53125 -1.3922,10.421484 -3.5185,20.74832 -7.2813,30.59375 -6.0686,0.0823 -4.0629,-12.484389 -7.625,-16.875 -6.2031,0.52251 -1.3248,11.16286 -1.6875,15.6875 0.6303,7.5229 2.9172,15.07796 1.4375,22.625 -5.1433,1.48506 -4.1775,-10.26071 -6.4687,-14.03125 -4.6539,-16.29185 -8.1607,-32.940488 -13.6563,-48.96875 -1.1017,-2.080089 -1.9912,-5.435353 -4.5313,-6.0625 z m 5.9063,123.71875 c 4.1432,0.08327 8.7642,0.904741 15.375,2.40625 -7.9892,4.05828 -12.5756,9.55652 -20.875,11.4375 -7.9819,1.80904 -19.256,1.4554 -22.4687,-1.34375 2.7619,-2.42802 8.4075,-8.48205 15.0312,-10.4375 4.2115,-1.24332 7.5984,-1.92345 11.1875,-2.03125 0.5768,-0.01732 1.1581,-0.04315 1.75,-0.03125 z"
             transform="translate(-1650.0466,94.979964)"
             id="path3121"
             style="fill:url(#radialGradient6909);fill-opacity:1;stroke:#808080;stroke-width:10.74339104;stroke-linecap:round;stroke-linejoin:miter;stroke-miterlimit:4;stroke-dasharray:none"
             inkscape:connector-curvature="0" />
        </g>
        <path
           d="m 1129.4978,51.38943 c -2.9391,0 -5.3125,2.04568 -5.3125,4.5625 2.2155,8.92509 10.2884,3.48778 10.6429,-0.82903 0.158,-1.92442 -1.2179,-3.62615 -5.3304,-3.73347 z"
           id="path3125"
           style="fill:#e9c240;fill-opacity:1;stroke:#c7b322;stroke-opacity:1"
           inkscape:connector-curvature="0" />
        <path
           d="m 1226.8409,264.29208 c 0,0 13.3406,50.70409 29.1698,70.68059 15.1466,19.115 37.5729,31.87669 59.4614,42.63274 31.5374,15.49747 68.4376,17.01495 100.9723,30.29168 46.9281,19.15041 92.119,43.0793 134.6297,70.68059 22.7785,14.78961 66.1929,52.44948 66.1929,52.44948"
           id="path3129"
           style="fill:none;stroke:#808080;stroke-width:5;stroke-linecap:butt;stroke-linejoin:miter;stroke-miterlimit:4;stroke-opacity:1;stroke-dasharray:none"
           inkscape:connector-curvature="0" />
        <path
           d="m 1129.4978,51.38943 c -2.9391,0 -5.3125,2.04568 -5.3125,4.5625 2.2155,8.92509 10.2884,3.48778 10.6429,-0.82903 0.158,-1.92442 -1.2179,-3.62615 -5.3304,-3.73347 z"
           id="path3131"
           style="fill:#e9c240;fill-opacity:1;stroke:#c7b322;stroke-opacity:1"
           inkscape:connector-curvature="0" />
        <path
           d="m 1226.8409,264.29208 c 0,0 13.3406,50.70409 29.1698,70.68059 15.1466,19.115 37.5729,31.87669 59.4614,42.63274 31.5374,15.49747 68.4376,17.01495 100.9723,30.29168 46.9281,19.15041 92.119,43.0793 134.6297,70.68059 22.7785,14.78961 66.1929,52.44948 66.1929,52.44948"
           id="path3135"
           style="fill:none;stroke:#808080;stroke-width:10.74339104;stroke-linecap:butt;stroke-linejoin:miter;stroke-miterlimit:4;stroke-opacity:1;stroke-dasharray:none"
           inkscape:connector-curvature="0" />
      </g>
    </g>
  </g>
</svg>
