<?xml version="1.0" encoding="UTF-8" standalone="no"?>
<!-- Created with Inkscape (http://www.inkscape.org/) -->

<svg
   xmlns:dc="http://purl.org/dc/elements/1.1/"
   xmlns:cc="http://creativecommons.org/ns#"
   xmlns:rdf="http://www.w3.org/1999/02/22-rdf-syntax-ns#"
   xmlns:svg="http://www.w3.org/2000/svg"
   xmlns="http://www.w3.org/2000/svg"
   xmlns:sodipodi="http://sodipodi.sourceforge.net/DTD/sodipodi-0.dtd"
   xmlns:inkscape="http://www.inkscape.org/namespaces/inkscape"
   width="744.09448819"
   height="1052.3622047"
   id="svg2"
   version="1.1"
   inkscape:version="0.48.5 r10040"
   sodipodi:docname="goelug_logo_t1.svg">
  <defs
     id="defs4" />
  <sodipodi:namedview
     id="base"
     pagecolor="#ffffff"
     bordercolor="#666666"
     borderopacity="1.0"
     inkscape:pageopacity="0.0"
     inkscape:pageshadow="2"
     inkscape:zoom="1.4"
     inkscape:cx="354.29546"
     inkscape:cy="905.74304"
     inkscape:document-units="px"
     inkscape:current-layer="layer3"
     showgrid="false"
     inkscape:window-width="1366"
     inkscape:window-height="742"
     inkscape:window-x="0"
     inkscape:window-y="0"
     inkscape:window-maximized="0"
     inkscape:snap-grids="true"
     showguides="true"
     inkscape:guide-bbox="true" />
  <metadata
     id="metadata7">
    <rdf:RDF>
      <cc:Work
         rdf:about="">
        <dc:format>image/svg+xml</dc:format>
        <dc:type
           rdf:resource="http://purl.org/dc/dcmitype/StillImage" />
        <dc:title></dc:title>
      </cc:Work>
    </rdf:RDF>
  </metadata>
  <g
     inkscape:groupmode="layer"
     id="layer8"
     inkscape:label="Linux User Group"
     style="display:none">
    <text
       xml:space="preserve"
       style="font-size:40px;font-style:normal;font-weight:normal;line-height:125%;letter-spacing:0px;word-spacing:0px;fill:#000000;fill-opacity:1;stroke:none;display:inline;font-family:Sans"
       x="125.58671"
       y="270.38153"
       id="text3035"
       sodipodi:linespacing="125%"><tspan
         sodipodi:role="line"
         id="tspan3037"
         x="125.58671"
         y="270.38153">LINUX USER GROUP</tspan></text>
  </g>
  <g
     inkscape:groupmode="layer"
     id="layer9"
     inkscape:label="Le Havre"
     style="display:none">
    <text
       xml:space="preserve"
       style="font-size:40px;font-style:normal;font-weight:normal;line-height:125%;letter-spacing:0px;word-spacing:0px;fill:#000000;fill-opacity:1;stroke:none;display:inline;font-family:Sans"
       x="326.86429"
       y="308.25369"
       id="text3031"
       sodipodi:linespacing="125%"><tspan
         sodipodi:role="line"
         id="tspan3033"
         x="326.86429"
         y="308.25369">LE HAVRE</tspan></text>
  </g>
  <g
     inkscape:groupmode="layer"
     id="layer4"
     inkscape:label="Head Grey"
     style="display:none">
    <path
       style="fill:#f2f2f2;stroke:none;display:inline"
       d="m 274.06001,164.42033 c 0,0 3.02136,-2.85522 3.75897,-12.73087 0.33258,-4.45277 -6.48275,6.51637 -13.50241,3.42031 -5.4481,-2.40293 -16.38649,-4.54305 -16.87119,-10.97094 -0.48471,-6.42788 33.26986,-25.69381 31.77871,-31.57062 -1.49114,-5.8768 -3.58514,-20.150207 -10.40982,-29.807325 -6.82468,-9.657118 -30.50451,-27.365395 -47.781,-27.0562 -17.27648,0.309195 -34.66396,7.609467 -46.57649,23.474258 -11.91253,15.864791 -6.65947,40.421637 -5.01053,55.811457 1.64893,15.38982 -5.87293,30.75162 -11.80493,46.39268 -5.932,15.64107 36.11498,18.34048 55.0855,16.56535 11.59919,-1.08537 22.28963,-12.68168 37.22313,-13.29236 -6.49507,-10.61069 24.11006,-20.23574 24.11006,-20.23574 z"
       id="path3071"
       inkscape:connector-curvature="0"
       sodipodi:nodetypes="csssszzzzzscc"
       inkscape:export-filename="/home/schmidbt/projects/goelug/graphisme/logo/goelug_proposition1/goelug_t2.png"
       inkscape:export-xdpi="167.37344"
       inkscape:export-ydpi="167.37344" />
    <path
       style="fill:#ffffff;stroke:none;display:inline"
       d="m 197.71407,153.97694 35.53173,-17.67458 15.86658,19.75924 -11.11168,17.17259 -17.93021,3.78808 z"
       id="path3841"
       inkscape:connector-curvature="0"
       sodipodi:nodetypes="cccccc"
       inkscape:export-filename="/home/schmidbt/projects/goelug/graphisme/logo/goelug_proposition1/goelug_t2.png"
       inkscape:export-xdpi="167.37344"
       inkscape:export-ydpi="167.37344" />
  </g>
  <g
     inkscape:groupmode="layer"
     id="layer7"
     inkscape:label="Hair"
     style="display:inline">
    <path
       style="fill:none;stroke:#000000;stroke-width:2;stroke-linecap:butt;stroke-linejoin:miter;stroke-miterlimit:4;stroke-opacity:1;stroke-dasharray:none;display:inline"
       d="m 285.34832,72.423722 c 0,0 -15.47068,11.373941 -21.34409,6.166422 -5.87341,-5.207519 8.38234,-26.336658 8.38234,-26.336658 0,0 -16.89924,17.933642 -27.37744,11.020666 -10.47819,-6.912976 1.10732,-24.224438 1.10732,-24.224438 0,0 -16.80323,16.976821 -26.16352,16.449236 -9.36029,-0.527584 -14.63017,-14.864756 -14.63017,-14.864756 0,0 -2.60497,16.268217 -9.7549,19.816172 -7.14993,3.547955 -25.40573,-10.247282 -25.40573,-10.247282 0,0 13.15189,18.138001 6.82687,24.305839 -6.32501,6.167839 -26.03553,-6.060915 -26.03553,-6.060915 0,0 23.20648,17.575311 19.06381,25.744921 -4.14267,8.169611 -25,-5.425845 -25,-5.425845 l 3.78064,5.591725"
       id="path3004"
       inkscape:connector-curvature="0"
       sodipodi:nodetypes="czczczczczczcc"
       inkscape:export-filename="/home/schmidbt/projects/goelug/graphisme/logo/goelug_proposition1/goelug_t3.png"
       inkscape:export-xdpi="167.37344"
       inkscape:export-ydpi="167.37344" />
  </g>
  <g
     inkscape:groupmode="layer"
     id="layer10"
     inkscape:label="Glasses"
     style="display:inline">
    <path
       style="fill:#ffffff;stroke:#000000;stroke-width:2;stroke-linecap:butt;stroke-linejoin:miter;stroke-miterlimit:4;stroke-opacity:1;stroke-dasharray:none;display:inline"
       d="m 197.16034,160.54877 c -5.96973,-10.8785 -16.73083,-22.02807 -21.89286,-19.71429 -5.16203,2.31379 -3.92857,-10.89286 -3.92857,-10.89286 l 24.39285,17.03572 c 0,0 2.57688,6.23565 1.42858,13.57143 z"
       id="path3002"
       inkscape:connector-curvature="0"
       sodipodi:nodetypes="czccc"
       inkscape:export-filename="/home/schmidbt/projects/goelug/graphisme/logo/goelug_proposition1/goelug_t3.png"
       inkscape:export-xdpi="167.37344"
       inkscape:export-ydpi="167.37344" />
  </g>
  <g
     inkscape:groupmode="layer"
     id="layer2"
     inkscape:label="GoeLUG"
     style="display:inline">
    <path
       style="font-size:108.83048248px;font-style:normal;font-variant:normal;font-weight:normal;font-stretch:normal;text-align:start;line-height:125%;letter-spacing:0px;word-spacing:0px;writing-mode:lr-tb;text-anchor:start;fill:#000000;fill-opacity:1;stroke:none;font-family:Telex;-inkscape-font-specification:Telex"
       inkscape:connector-curvature="0"
       id="path2992"
       d="m 224.4795,182.66586 c -6.87461,-0.41042 -13.51837,-3.82207 -19.93128,-10.23499 -6.41287,-6.41287 -9.79888,-13.03097 -10.15803,-19.85433 -0.30779,-6.87457 2.53953,-13.31312 8.54198,-19.31565 6.00248,-6.0024 12.41537,-8.82407 19.23869,-8.46502 6.87462,0.30788 13.51837,3.66824 19.93129,10.08107 6.41287,6.41296 9.79888,13.08236 10.15803,20.00825 0.35908,6.82335 -2.46258,13.23624 -8.46503,19.23869 -6.00249,6.00249 -12.44103,8.84981 -19.31565,8.54198 m -20.54692,-31.47451 c 0.51305,4.41212 3.18081,9.0294 8.0033,13.85186 4.8225,4.82254 9.46543,7.51595 13.92881,8.08025 4.51467,0.51306 8.59327,-1.05169 12.23581,-4.69424 3.6425,-3.64249 5.1816,-7.69543 4.61728,-12.15885 -0.51305,-4.51463 -3.1808,-9.18322 -8.00329,-14.00577 -4.82251,-4.82245 -9.46544,-7.46455 -13.92882,-7.92634 -4.46337,-0.56427 -8.51632,0.97482 -12.15885,4.61729 -3.64251,3.64257 -5.20725,7.72117 -4.69424,12.2358"
       inkscape:export-filename="/home/schmidbt/projects/goelug/graphisme/logo/goelug_proposition1/goelug_t3.png"
       inkscape:export-xdpi="167.37344"
       inkscape:export-ydpi="167.37344" />
    <path
       style="font-size:108.83048248px;font-style:normal;font-variant:normal;font-weight:normal;font-stretch:normal;text-align:start;line-height:125%;letter-spacing:0px;word-spacing:0px;writing-mode:lr-tb;text-anchor:start;fill:#000000;fill-opacity:1;stroke:none;font-family:Telex;-inkscape-font-specification:Telex"
       inkscape:connector-curvature="0"
       id="path2994"
       d="m 263.02998,159.96595 c -7.04457,-0.31542 -13.87885,-3.78513 -20.50286,-10.40915 -6.62398,-6.62394 -10.09369,-13.40565 -10.40914,-20.34512 -0.36797,-6.99195 2.47087,-13.51079 8.51657,-19.55657 11.25028,-11.250202 23.76227,-9.988498 37.536,3.78513 l 1.26172,1.26172 -28.30972,28.30972 c 4.67885,4.4686 9.25257,6.88687 13.72114,7.25485 4.46855,0.36802 8.59542,-1.34055 12.38057,-5.12572 3.83769,-3.83767 7.01826,-9.06852 9.5417,-15.69255 l 7.17601,2.9177 c -2.41831,7.57033 -6.15088,13.87888 -11.19772,18.92571 -6.09829,6.0983 -12.66973,8.98973 -19.71427,8.67428 m -16.56001,-44.4754 c -6.25597,6.25603 -6.43998,13.48461 -0.552,21.68571 l 20.18743,-20.18745 c -3.99542,-3.25936 -7.57029,-4.9942 -10.72458,-5.20455 -3.20684,-0.26281 -6.17712,0.97263 -8.91085,3.70629"
       inkscape:export-filename="/home/schmidbt/projects/goelug/graphisme/logo/goelug_proposition1/goelug_t3.png"
       inkscape:export-xdpi="167.37344"
       inkscape:export-ydpi="167.37344" />
    <path
       style="font-size:108.83048248px;font-style:normal;font-variant:normal;font-weight:normal;font-stretch:normal;text-align:start;line-height:125%;letter-spacing:0px;word-spacing:0px;writing-mode:lr-tb;text-anchor:start;fill:#000000;fill-opacity:1;stroke:none;font-family:Telex;-inkscape-font-specification:Telex"
       inkscape:connector-curvature="0"
       id="path2996"
       d="m 310.70717,180.91328 0,-84.027349 11.27485,0 0,74.176689 38.4532,0 0,9.85066 -49.72805,0"
       inkscape:export-filename="/home/schmidbt/projects/goelug/graphisme/logo/goelug_proposition1/goelug_t3.png"
       inkscape:export-xdpi="167.37344"
       inkscape:export-ydpi="167.37344" />
    <path
       style="font-size:108.83048248px;font-style:normal;font-variant:normal;font-weight:normal;font-stretch:normal;text-align:start;line-height:125%;letter-spacing:0px;word-spacing:0px;writing-mode:lr-tb;text-anchor:start;fill:#000000;fill-opacity:1;stroke:none;font-family:Telex;-inkscape-font-specification:Telex"
       inkscape:connector-curvature="0"
       id="path2998"
       d="m 372.92657,154.20967 0,-57.323739 11.39354,0 0,56.730319 c -2e-5,12.2639 7.12094,18.39583 21.36289,18.39582 14.32099,1e-5 21.4815,-5.93412 21.48157,-17.8024 l 0,-57.323739 11.39353,0 0,57.323739 c -7e-5,8.78254 -2.72977,15.58701 -8.1891,20.41342 -5.45947,4.82643 -13.68813,7.23965 -24.686,7.23965 -10.99797,0 -19.22662,-2.41322 -24.686,-7.23965 -5.3803,-4.82641 -8.07044,-11.63088 -8.07043,-20.41342"
       inkscape:export-filename="/home/schmidbt/projects/goelug/graphisme/logo/goelug_proposition1/goelug_t3.png"
       inkscape:export-xdpi="167.37344"
       inkscape:export-ydpi="167.37344" />
    <path
       style="font-size:108.83048248px;font-style:normal;font-variant:normal;font-weight:normal;font-stretch:normal;text-align:start;line-height:125%;letter-spacing:0px;word-spacing:0px;writing-mode:lr-tb;text-anchor:start;fill:#000000;fill-opacity:1;stroke:none;font-family:Telex;-inkscape-font-specification:Telex"
       inkscape:connector-curvature="0"
       id="path3000"
       d="m 463.47962,170.82524 c -6.488,-7.43742 -9.73198,-18.11886 -9.73198,-32.04432 0,-13.92537 3.24398,-24.52769 9.73198,-31.80696 6.5671,-7.358252 16.10126,-11.03741 28.60254,-11.037497 12.58031,8.7e-5 22.1936,4.074857 28.8399,12.224317 l -7.71439,6.40887 c -5.30122,-6.09231 -12.30349,-9.13849 -21.00683,-9.13857 -8.62431,8e-5 -15.19142,2.84846 -19.70133,8.54516 -4.43084,5.69683 -6.64624,14.04417 -6.64623,25.04205 -10e-6,10.91883 2.29451,19.22661 6.8836,24.92336 4.66815,5.69678 11.51218,8.54516 20.5321,8.54515 5.77584,1e-5 11.31436,-0.90989 16.61558,-2.7297 l 0,-30.02672 11.39354,0 0,35.48612 c -7.99137,4.50995 -18.00027,6.76492 -30.02673,6.76492 -11.94742,0 -21.20465,-3.71872 -27.77175,-11.15618"
       inkscape:export-filename="/home/schmidbt/projects/goelug/graphisme/logo/goelug_proposition1/goelug_t3.png"
       inkscape:export-xdpi="167.37344"
       inkscape:export-ydpi="167.37344" />
    <path
       sodipodi:type="arc"
       style="fill:#000000;fill-opacity:1;stroke:#000000;stroke-width:1.89999998;stroke-miterlimit:4;stroke-opacity:1;stroke-dasharray:none"
       id="path3014-6"
       sodipodi:cx="266.25"
       sodipodi:cy="113.25504"
       sodipodi:rx="4.4642859"
       sodipodi:ry="5.1785712"
       d="m 269.75672,116.45983 a 4.4642859,5.1785712 0 1 1 0.0647,-0.0976"
       sodipodi:start="0.66728433"
       sodipodi:end="6.9266864"
       sodipodi:open="true"
       transform="matrix(0.68814744,0,0,0.68814744,83.49502,60.426013)"
       inkscape:export-filename="/home/schmidbt/projects/goelug/graphisme/logo/goelug_proposition1/goelug_t3.png"
       inkscape:export-xdpi="167.37344"
       inkscape:export-ydpi="167.37344" />
    <path
       style="fill:#000000;stroke:#000000;stroke-width:1px;stroke-linecap:butt;stroke-linejoin:miter;stroke-opacity:1"
       d="m 226.65301,111.88757 2.41335,4.13777 17.22951,-17.377439 -3.71193,-5.497648 z"
       id="path3843"
       inkscape:connector-curvature="0"
       sodipodi:nodetypes="ccccc"
       inkscape:export-filename="/home/schmidbt/projects/goelug/graphisme/logo/goelug_proposition1/goelug_t3.png"
       inkscape:export-xdpi="167.37344"
       inkscape:export-ydpi="167.37344" />
    <path
       style="fill:#ffffff;stroke:#000000;stroke-width:2;stroke-linecap:butt;stroke-linejoin:miter;stroke-miterlimit:4;stroke-opacity:1;stroke-dasharray:none"
       d="m 218.67589,119.47138 -3.17566,-2.63752 -24.26474,6.9629 5.61316,5.16221 z"
       id="path3843-2"
       inkscape:connector-curvature="0"
       sodipodi:nodetypes="ccccc"
       inkscape:export-filename="/home/schmidbt/projects/goelug/graphisme/logo/goelug_proposition1/goelug_t3.png"
       inkscape:export-xdpi="167.37344"
       inkscape:export-ydpi="167.37344" />
    <path
       style="font-size:108.83048248px;font-style:normal;font-variant:normal;font-weight:normal;font-stretch:normal;text-align:start;line-height:125%;letter-spacing:0px;word-spacing:0px;writing-mode:lr-tb;text-anchor:start;fill:#000000;fill-opacity:1;stroke:none;font-family:Telex;-inkscape-font-specification:Telex"
       inkscape:connector-curvature="0"
       id="path3000-4"
       d="m 109.68104,170.5142 c -6.488,-7.43742 -9.73198,-18.11886 -9.73198,-32.04432 0,-13.92537 3.24398,-24.52769 9.73198,-31.80696 6.5671,-7.35826 16.10126,-11.037411 28.60254,-11.037501 12.58031,9e-5 22.1936,4.074861 28.8399,12.224321 l -7.71439,6.40887 c -5.30122,-6.09231 -12.30349,-9.13849 -21.00683,-9.13857 -8.62431,8e-5 -15.19142,2.84846 -19.70133,8.54516 -4.43084,5.69683 -6.64624,14.04417 -6.64623,25.04205 -1e-5,10.91883 2.29451,19.22661 6.8836,24.92336 4.66815,5.69678 11.51218,8.54516 20.5321,8.54515 5.77584,1e-5 11.31436,-0.90989 16.61558,-2.7297 l 0,-30.02672 11.39354,0 0,35.48612 c -7.99137,4.50995 -18.00027,6.76492 -30.02673,6.76492 -11.94742,0 -21.20465,-3.71872 -27.77175,-11.15618"
       inkscape:export-filename="/home/schmidbt/projects/goelug/graphisme/logo/goelug_proposition1/goelug_t3.png"
       inkscape:export-xdpi="167.37344"
       inkscape:export-ydpi="167.37344" />
    <path
       sodipodi:type="arc"
       style="fill:#000000;fill-opacity:1;stroke:#000000;stroke-width:1.89999998;stroke-miterlimit:4;stroke-opacity:1;stroke-dasharray:none;display:inline"
       id="path3014"
       sodipodi:cx="266.25"
       sodipodi:cy="113.25504"
       sodipodi:rx="4.4642859"
       sodipodi:ry="5.1785712"
       d="m 269.75672,116.45983 a 4.4642859,5.1785712 0 1 1 0.0647,-0.0976"
       sodipodi:start="0.66728433"
       sodipodi:end="6.9266864"
       sodipodi:open="true"
       transform="matrix(0.68814744,0,0,0.68814744,47.075211,83.47147)"
       inkscape:export-filename="/home/schmidbt/projects/goelug/graphisme/logo/goelug_proposition1/goelug_t3.png"
       inkscape:export-xdpi="167.37344"
       inkscape:export-ydpi="167.37344" />
  </g>
  <g
     inkscape:groupmode="layer"
     id="layer3"
     inkscape:label="Beak"
     style="display:inline">
    <path
       style="fill:none;stroke:#000000;stroke-width:2;stroke-linecap:butt;stroke-linejoin:miter;stroke-miterlimit:4;stroke-opacity:1;stroke-dasharray:none;display:inline"
       d="m 273.33024,164.01758 c 0,0 65.91591,31.92729 70.71429,54.28571 4.79838,22.35842 -8.92857,7.49999 -8.92857,7.49999 0,0 -9.88435,-7.25627 -22.50001,-15.71428 -12.61566,-8.458 -39.92858,-17.18956 -52.49999,-21.42857 -12.57141,-4.23901 -19.64287,-8.57143 -19.64287,-8.57143"
       id="path3006"
       inkscape:connector-curvature="0"
       sodipodi:nodetypes="czczzc"
       inkscape:export-filename="/home/schmidbt/projects/goelug/graphisme/logo/goelug_proposition1/goelug_t3.png"
       inkscape:export-xdpi="167.37344"
       inkscape:export-ydpi="167.37344" />
    <path
       style="fill:none;stroke:#000000;stroke-width:2;stroke-linecap:butt;stroke-linejoin:miter;stroke-miterlimit:4;stroke-opacity:1;stroke-dasharray:none;display:inline"
       d="m 330.11596,222.589 c 0,0 -39.27563,-11.67226 -63.57143,-21.78572 -24.2958,-10.11346 -52.50001,-3.92857 -52.50001,-3.92857"
       id="path3010"
       inkscape:connector-curvature="0"
       sodipodi:nodetypes="czc"
       inkscape:export-filename="/home/schmidbt/projects/goelug/graphisme/logo/goelug_proposition1/goelug_t3.png"
       inkscape:export-xdpi="167.37344"
       inkscape:export-ydpi="167.37344" />
    <path
       style="fill:#ffffff;stroke:#000000;stroke-width:2;stroke-linecap:butt;stroke-linejoin:miter;stroke-miterlimit:4;stroke-opacity:1;stroke-dasharray:none;display:inline"
       d="m 281.20533,179.37471 c -7.1029,1.79418 -12.34972,-2.86991 -15.06314,-7.87076 0,0 12.68872,0.13094 15.06314,7.87076 z"
       id="path3012"
       inkscape:connector-curvature="0"
       sodipodi:nodetypes="ccc"
       inkscape:export-filename="/home/schmidbt/projects/goelug/graphisme/logo/goelug_proposition1/goelug_t3.png"
       inkscape:export-xdpi="167.37344"
       inkscape:export-ydpi="167.37344" />
  </g>
</svg>
